<?xml version="1.0" encoding="UTF-8" standalone="no"?>
<svg
   id="Calque_1"
   data-name="Calque 1"
   viewBox="0 0 47.51999 47.520002"
   version="1.1"
   width="47.519989"
   height="47.52"
   xmlns="http://www.w3.org/2000/svg"
   xmlns:svg="http://www.w3.org/2000/svg">
  <defs
     id="defs1">
    <style
       id="style1">
      .cls-1 {
        fill: #fff;
        stroke-width: 0px;
      }
    </style>
  </defs>
  <path
     class="cls-1"
     d="M 23.76,0 C 10.64,0 -1.5196629e-7,10.64 -1.5196629e-7,23.76 -1.5196629e-7,36.88 10.64,47.52 23.76,47.52 36.88,47.52 47.52,36.88 47.52,23.76 47.52,10.64 36.89,0 23.76,0 Z M 12.4,30.4 H 10.65 V 16.79 h 1.75 z m 13.74,-4.49 c 0,3.05 -1.87,4.72 -5.33,4.72 -3.46,0 -5.31,-1.67 -5.31,-4.72 v -9.12 h 1.77 v 9.12 c 0,2.16 1.65,3.17 3.54,3.17 1.89,0 3.56,-1.01 3.56,-3.17 v -9.12 h 1.77 z M 38.61,18.33 H 34.08 V 30.4 H 32.31 V 18.33 h -4.53 v -1.54 h 10.83 z"
     id="iut"
     style="display:inline" />
</svg>
