<?xml version="1.0" encoding="UTF-8" standalone="no"?>
<!-- Generator: Adobe Illustrator 24.1.1, SVG Export Plug-In . SVG Version: 6.00 Build 0)  -->

<svg
   version="1.1"
   id="Layer_1"
   viewBox="0 0 60.483845 43.222225"
   width="60.483845"
   height="43.222225"
   xmlns="http://www.w3.org/2000/svg"
   xmlns:svg="http://www.w3.org/2000/svg">
   <defs
   id="defs1" />
<g
   id="g1"
   transform="matrix(0.11813251,0,0,0.11818716,0,-8.6442089)"
   style="fill-rule:nonzero;stroke-width:0.998647;stroke-dasharray:none">
	<path
   d="m 36.57,73.14 h 182.86 c 20.21,0 36.57,16.36 36.57,36.57 0,20.18 -16.36,36.57 -36.57,36.57 H 36.57 C 16.39,146.29 0,129.89 0,109.71 0,89.5 16.39,73.14 36.57,73.14 Z m 256,292.57 h 182.86 c 20.21,0 36.57,16.36 36.57,36.57 0,20.18 -16.36,36.57 -36.57,36.57 H 292.57 c -20.18,0 -36.57,-16.39 -36.57,-36.57 0,-20.21 16.39,-36.57 36.57,-36.57 z m -256,-146.28 h 438.86 c 20.21,0 36.57,16.36 36.57,36.57 0,20.18 -16.36,36.57 -36.57,36.57 H 36.57 C 16.39,292.57 0,276.18 0,256 0,235.79 16.39,219.43 36.57,219.43 Z"
   id="path1"
   style="fill:#ffffff;fill-opacity:1;fill-rule:nonzero;stroke-width:0.998647;stroke-dasharray:none" />
</g>
</svg>
