<svg id="emxrPaz4VoX1" xmlns="http://www.w3.org/2000/svg" xmlns:xlink="http://www.w3.org/1999/xlink" viewBox="0 0 300 300" shape-rendering="geometricPrecision" text-rendering="geometricPrecision" project-id="4755ad4f4366411f9ae1fc694c7419bd" export-id="01184dc4a53b4c36978dbeedd60454e4" cached="false"><path d="M510.6,64.9C263.4,64.9,63,265.3,63,512.5s200.4,447.5,447.6,447.5s447.6-200.4,447.6-447.6-200.5-447.5-447.6-447.5ZM689.015618,512.5c0,0,.000003,205.361744.000003,205.361744s-357.378427,0-357.378427,0v-205.461745c.000028-29.197042,0-182.197409,0-182.197409s357.378425,0,357.378425,0-.000001,182.29741-.000001,182.29741Z" transform="matrix(.335121 0 0 0.335121-21.112783-21.732756)"/><path d="M653.327019,228.602358c0,0-175.098791,15.599137-175.098791,15.599137s.000039,387.659151.000039,387.659151c.41097-.205485,309.757091-421.768051,154.728508-421.591519s193.705,17.332494,20.370244,18.333231Zm93.964136,0c0,0-269.062927,15.599137-269.062927,15.599137s.000039,387.659152.000039,387.659152v.00001c.000028-29.197042-.000039,8.107513-.000039,8.107513s269.062927-.000004,269.062927-.000004s0-411.365808,0-411.365808Z" transform="matrix(.335121 0 0 0.335121-55.428335 7.088017)"/></svg>
