<?xml version="1.0" encoding="UTF-8" standalone="no"?>
<!-- Created with Inkscape (http://www.inkscape.org/) -->

<svg
   version="1.1"
   id="svg1"
   width="512"
   height="512"
   viewBox="0 0 512 512"
   xmlns="http://www.w3.org/2000/svg"
   xmlns:svg="http://www.w3.org/2000/svg">
  <defs
     id="defs1" />
  <g
     id="g1">
    <path
       style="fill:#010101;stroke:none"
       d="m 235.81042,33.592589 c -38.69766,5.143189 -74.53302,16.223542 -107,38.601075 -23.63486,16.290069 -43.761306,37.114196 -59.666663,60.974546 -14.633358,21.95218 -25.621571,47.16864 -31.122688,73 -7.432082,34.8985 -7.413533,71.29614 1.264659,106 C 66.8279,422.30859 176.69059,492.85464 287.81042,477.8858 c 31.30408,-4.21695 61.25504,-15.64374 88,-32.29398 22.14987,-13.78955 41.55585,-31.87088 57.57562,-52.42361 66.51831,-85.34042 59.8436,-211.0816 -13.66513,-290 -28.0394,-30.102873 -64.54852,-51.201383 -103.91049,-62.421293 -24.94025,-7.10907 -54.13657,-10.591736 -80,-7.154328 M 180.81428,157.60571 c 10.4885,-2.76523 27.29469,11.8934 35.99614,16.84335 32.45163,18.46061 64.54938,37.53995 97,56 8.548,4.86267 34.37714,14.33374 34.59723,25.71915 0.22974,11.88379 -26.93613,21.64124 -35.59723,26.79938 -28.76523,17.13116 -58.13086,33.25601 -87,50.21142 -11.54153,6.77857 -27.66858,20.4303 -41,22.36573 -16.30905,2.36773 -11,-30.00122 -11,-39.37653 v -121 c 0,-9.13367 -4.60826,-34.50101 7.00386,-37.5625 z"
       id="path1" />
  </g>
</svg>
